<svg width="300" height="300" viewBox="0 0 300 300" fill="none" xmlns="http://www.w3.org/2000/svg">
<g clip-path="url(#clip0_246_43)">
<path d="M228.946 136.065L224.354 133.278L184.863 105.409L183.026 101.693V98.9056L183.035 87.5254C183.035 81.264 182.604 74.8911 182.08 73.3583C181.318 71.138 181.41 70.339 183.945 68.2488L213.333 39.45L219.762 32.947L221.829 33.235C222.967 33.3929 229.268 38.233 247.774 54.4625L248.058 86.6707C248.205 104.387 248.123 120.022 247.856 121.415C247.305 124.295 233.465 136.065 228.946 136.065Z" fill="#F4F433" fill-opacity="0.988235"/>
<path d="M122.411 67.3193L101.288 30.1595L95.7778 20.8696L98.7626 18.7794C101.747 16.6891 101.747 16.6891 203.672 16.2061L210.404 21.9287C214.114 25.0779 217.319 28.4223 217.925 31.0885L211.496 36.6625L181.189 66.3903L179.352 68.2483H123.33L122.411 67.3193Z" fill="#F4F433" fill-opacity="0.988235"/>
<path d="M172.005 174.154L156.163 165.681C147.447 161.018 139.595 156.837 137.106 155.574L127.922 150.929L181.189 107.266H182.108L200.54 120.504C210.679 127.788 219.569 134.058 221.599 135.136L227.109 138.852L181.189 177.87L172.005 174.154Z" fill="#F4F433" fill-opacity="0.988235"/>
<path d="M67.307 98.905V94.5666C67.307 88.909 67.1325 88.8161 57.2046 94.26L56.5158 93.8327C56.1392 93.5912 55.7168 84.3105 55.3311 53.022L93.0223 23.6565L99.4511 33.8754L119.656 68.2482L120.574 71.0352L118.738 72.7538C117.727 73.6921 116.901 75.3643 116.901 78.4671V87.7571L116.947 91.2408C117.048 99.2766 117.654 99.1001 67.307 98.905Z" fill="#F4F433" fill-opacity="0.988235"/>
<path d="M117.002 154.97C117.589 153.558 130.355 142.577 148.227 128.113C182.566 100.327 179.673 104.173 179.205 86.9215C178.792 71.6767 181.308 72.8936 150.027 72.8936C118.59 72.8936 120.574 71.8253 120.574 88.733C120.574 105.232 124.643 103.55 84.7197 103.55H50.7756C50.8491 49.2415 49.398 53.0132 65.9292 39.4127C73.0009 33.5972 81.6523 25.9423 85.1514 22.3935C96.4936 10.9112 92.3425 11.58 152.535 11.58C204.323 11.58 204.323 11.58 209.172 15.5283C224.243 27.791 249.949 50.83 250.849 52.8738C252.411 56.4226 252.328 123.366 250.758 125.753C250.124 126.71 234.943 139.28 217.006 153.679C179.177 184.057 180.775 182.171 181.51 195.632C181.813 201.067 181.804 208.276 181.492 211.657L180.922 217.817H115.982C116.01 168.246 116.377 156.503 117.002 154.97ZM176.597 209.456L177.515 206.669V205.74L178.553 200.863C179.122 198.178 179.545 192.437 179.49 188.089C179.434 183.751 179.793 179.672 181.189 177.87L227.109 138.852L228.946 136.065C233.464 136.065 247.304 124.295 247.855 121.415C248.122 120.022 248.204 104.387 248.057 86.6706L247.773 54.4624C229.267 38.2329 222.967 33.3928 221.828 33.2349L219.762 32.9469L217.925 31.0889C217.319 28.4227 214.113 25.0783 210.403 21.929L203.671 16.2064C101.747 16.6895 101.747 16.6895 98.7621 18.7797L95.7773 20.87L95.5477 22.2728C95.4191 23.0345 94.8038 23.6663 93.0221 23.657L55.3309 53.0225C55.7166 84.311 56.1391 93.5916 56.5156 93.8332L57.2044 94.2605L59.0412 95.1895L56.9748 97.0289C54.9084 98.8776 54.9084 98.8776 61.7964 98.9055H67.3068C117.654 99.1006 117.047 99.2771 116.946 91.2413L116.901 87.7576V78.4676C116.901 75.3648 117.727 73.6926 118.737 72.7543L120.574 71.0357L121.428 70.3389C121.897 69.958 122.521 69.54 123.329 69.1777H147.208H164.657H171.086L175.311 69.9209C180.95 70.9056 181.418 72.0204 183.025 98.9055V101.692L181.189 107.266L127.921 150.929L126.085 153.716L123.559 154.413C121.437 154.998 120.997 155.667 120.574 162.077V192.734V214.101H146.804C173.015 214.101 176.597 213.711 176.597 209.456Z" fill="#332305" fill-opacity="0.988235"/>
<path d="M120.574 270.769V241.97L122.411 240.112L124.891 241.376C127.233 242.565 127.297 242.779 126.122 245.324C124.891 248.009 124.891 248.009 127.352 245.445C128.702 244.042 131.559 242.333 133.689 241.645C135.82 240.958 138.373 239.388 139.374 238.161C141.174 235.932 141.174 235.932 137.951 238.022C134.286 240.391 130.778 240.753 122.411 238.254L122.659 237.177C122.797 236.582 124.165 235.077 125.69 233.842C129.354 230.85 174.218 230.107 177.515 234.538V251.66C177.515 267.183 177.368 268.818 175.908 269.199C174.374 269.608 174.374 269.627 175.908 269.729C177.111 269.812 177.515 270.658 177.515 276.343L177.231 277.504C177.075 278.145 174.384 281.072 165.576 289.349H156.392H132.514L126.774 284.007C121.631 279.223 121.006 278.257 120.574 270.769ZM162.031 271.011C162.858 270.825 165.448 271.949 167.771 273.51C170.104 275.07 172.629 276.343 173.383 276.343C174.145 276.343 174.76 276.139 174.76 275.897C174.76 275.646 172.914 274.504 170.664 273.342C168.405 272.181 166.651 270.816 166.761 270.305C166.862 269.794 165.402 269.246 163.51 269.088C161.25 268.902 160.066 269.19 160.066 269.942C160.066 271.364 160.185 271.429 162.031 271.011Z" fill="#F4F433" fill-opacity="0.988235"/>
<path d="M120.574 192.734V162.077C120.997 155.667 121.438 154.998 123.559 154.413L126.085 153.716L135.269 158.361L170.168 176.941L173.539 178.66C177.892 180.88 178.59 183.007 177.855 191.916C177.249 199.237 177.249 199.237 171.087 199.237L164.979 198.113C160.268 197.239 158.532 197.23 157.402 198.085C156.172 199.005 156.466 199.19 159.202 199.209C161.673 199.227 164.199 200.482 176.597 209.456C176.597 213.711 173.015 214.101 146.804 214.101H120.574V192.734Z" fill="#F4F433" fill-opacity="0.988235"/>
<path d="M116.828 278.294C116.231 276.241 115.964 267.499 116.148 255.608C116.589 226.623 117.232 226.205 158.477 227.673L181.649 228.5L182.135 279.465C169.36 291.142 166.669 292.944 164.034 293.39C162.105 293.706 154.427 293.975 146.979 293.985C139.531 293.994 132.707 293.678 131.825 293.297C127.803 291.551 117.774 281.527 116.828 278.294ZM156.392 290.278L165.576 289.349C174.384 281.072 177.075 278.145 177.231 277.504L177.516 276.343V234.538C174.219 230.107 129.355 230.85 125.69 233.842C124.166 235.077 122.797 236.582 122.66 237.177L122.412 238.254V240.112L120.575 241.97V270.769C121.006 278.257 121.631 279.223 126.774 284.007L132.514 289.349L141.928 290.046C147.107 290.427 152.48 290.64 156.392 290.278Z" fill="#332305" fill-opacity="0.988235"/>
<path d="M182.107 107.266L184.863 105.408L224.354 133.278L221.599 135.136C219.569 134.058 210.679 127.788 200.54 120.504L182.107 107.266Z" fill="#564402" fill-opacity="0.988235"/>
<path d="M183.945 68.2484L181.189 66.3904L211.497 36.6626L213.334 39.4496L183.945 68.2484Z" fill="#564402" fill-opacity="0.988235"/>
<path d="M99.4509 33.8756L101.288 30.1597L122.411 67.3194L119.656 68.2484L99.4509 33.8756Z" fill="#564402" fill-opacity="0.988235"/>
<path d="M135.269 158.361L137.106 155.574C139.595 156.837 147.447 161.018 156.163 165.681L172.005 174.154L170.168 176.941L135.269 158.361Z" fill="#564402" fill-opacity="0.988235"/>
<path d="M177.515 205.74V202.953C177.515 200.389 177.258 200.166 171.086 200.166V199.237C177.249 199.237 177.249 199.237 177.855 191.916C178.59 183.007 177.892 180.88 173.539 178.66L170.168 176.941L172.005 174.154L181.189 177.87C179.793 179.672 179.435 183.751 179.49 188.089C179.545 192.437 179.122 198.178 178.553 200.863L177.515 205.74Z" fill="#473502" fill-opacity="0.988235"/>
<path d="M171.086 199.237V200.166L169.938 200.593C169.305 200.835 170.728 202.284 177.515 206.669L176.597 209.456C164.198 200.482 161.673 199.227 159.202 199.209C156.465 199.19 156.171 199.005 157.402 198.085C158.532 197.23 160.268 197.239 164.979 198.113L171.086 199.237Z" fill="#564402" fill-opacity="0.988235"/>
<path d="M123.33 69.1775V68.2485H179.352L171.086 69.1775H164.658H147.208H123.33Z" fill="#564402" fill-opacity="0.988235"/>
<path d="M171.087 69.1774L179.353 68.2484L181.189 66.3904L183.945 68.2484C181.41 70.3386 181.318 71.1375 182.08 73.3578C182.604 74.8907 183.035 81.2636 183.035 87.525L183.026 98.9052C181.419 72.0201 180.951 70.9053 175.312 69.9206L171.087 69.1774Z" fill="#473502" fill-opacity="0.988235"/>
<path d="M122.412 240.112V238.254C130.778 240.753 134.287 240.391 137.951 238.022C141.175 235.932 141.175 235.932 139.375 238.161C138.373 239.388 135.82 240.958 133.69 241.645C131.559 242.333 128.703 244.042 127.353 245.445C124.891 248.009 124.891 248.009 126.122 245.324C127.298 242.779 127.233 242.565 124.891 241.376L122.412 240.112Z" fill="#564402" fill-opacity="0.988235"/>
<path d="M59.0417 95.1894L62.1734 93.4521C65.296 91.7056 65.296 91.7056 65.6358 95.3101C65.9389 98.5337 65.7644 98.9053 61.7969 98.9053C54.9088 98.8775 54.9088 98.8775 56.9752 97.0288L59.0417 95.1894Z" fill="#F4F433" fill-opacity="0.988235"/>
<path d="M99.4515 33.8755L93.0227 23.6566C94.8044 23.6659 95.4197 23.0342 95.5483 22.2724L95.7779 20.8696L101.288 30.1596L99.4515 33.8755Z" fill="#473502" fill-opacity="0.988235"/>
<path d="M177.516 276.343C177.516 270.658 177.112 269.812 175.909 269.729C174.375 269.626 174.375 269.608 175.909 269.199C177.369 268.818 177.516 267.183 177.516 251.66V234.538V276.343Z" fill="#473502" fill-opacity="0.988235"/>
<path d="M126.085 153.716L127.922 150.929L137.106 155.574L135.269 158.361L126.085 153.716Z" fill="#473502" fill-opacity="0.988235"/>
<path d="M61.7966 98.9051C65.7641 98.9051 65.9386 98.5335 65.6355 95.3099C65.2957 91.7054 65.2957 91.7054 62.1731 93.4519L59.0414 95.1891L57.2046 94.2601C67.1325 88.8162 67.307 88.9091 67.307 94.5667V98.9051H61.7966Z" fill="#473502" fill-opacity="0.988235"/>
<path d="M171.087 200.166C177.258 200.166 177.515 200.389 177.515 202.953V205.74V206.669C170.728 202.284 169.305 200.835 169.939 200.593L171.087 200.166Z" fill="#F4F433" fill-opacity="0.988235"/>
<path d="M162.031 271.011C160.185 271.429 160.066 271.364 160.066 269.943C160.066 269.19 161.25 268.902 163.51 269.088C165.402 269.246 166.862 269.794 166.761 270.305C166.651 270.816 168.405 272.181 170.664 273.343C172.914 274.504 174.76 275.647 174.76 275.897C174.76 276.139 174.145 276.343 173.382 276.343C172.629 276.343 170.104 275.071 167.771 273.51C165.448 271.949 162.858 270.825 162.031 271.011Z" fill="#564402" fill-opacity="0.988235"/>
<path d="M213.333 39.4498L211.496 36.6628L217.925 31.0889L219.762 32.9469L213.333 39.4498Z" fill="#473502" fill-opacity="0.988235"/>
<path d="M132.514 289.349H156.392V290.278C152.48 290.64 147.107 290.427 141.928 290.046L132.514 289.349Z" fill="#564402" fill-opacity="0.988235"/>
<path d="M221.599 135.136L224.354 133.278L228.946 136.065L227.109 138.852L221.599 135.136Z" fill="#473502" fill-opacity="0.988235"/>
<path d="M181.189 107.266L183.026 101.692L184.863 105.408L182.108 107.266H181.189Z" fill="#473502" fill-opacity="0.988235"/>
<path d="M156.393 290.278V289.349H165.577L156.393 290.278Z" fill="#473502" fill-opacity="0.988235"/>
<path d="M120.575 71.0356L119.656 68.2486L122.412 67.3196L123.33 68.2486V69.1776C122.522 69.5399 121.897 69.9579 121.429 70.3388L120.575 71.0356Z" fill="#473502" fill-opacity="0.988235"/>
</g>
<defs>
<clipPath id="clip0_246_43">
<rect width="300" height="300" fill="white"/>
</clipPath>
</defs>
</svg>
