<svg width="300" height="300" viewBox="0 0 300 300" fill="none" xmlns="http://www.w3.org/2000/svg">
<path d="M27.5936 265.367C20.2207 253.767 19.9616 251.114 20.1382 188.793L20.3031 132.977C-3.73533 108.979 -3.77066 103.238 11.6582 60.1839C31.2918 5.40107 22.9885 8.6298 145.748 8.18365C276.211 7.71402 267.743 4.43832 288.495 63.4596C302.593 103.566 302.546 109.672 288.083 123.373C280.863 130.218 280.863 130.218 280.274 191.611C279.685 253.004 279.685 253.004 275.433 261.081C269.768 271.836 260.381 279.491 248.91 282.708C241.231 284.868 236.19 284.986 149.835 284.998C62.8209 285.021 58.5338 284.915 51.4436 282.72C41.2087 279.562 32.658 273.327 27.5936 265.367ZM68.274 218.286C68.274 156.529 68.1916 156.658 106.929 156.107C150.212 155.484 149.541 154.522 149.541 217.723V262.713C263.467 262.713 257.896 269.206 257.896 189.263V131.216H42.3629C42.3629 245.501 42.3629 245.501 45.0836 251.031C47.0858 255.105 49.2411 257.36 53.328 259.637C56.3667 261.328 60.1356 262.713 61.7138 262.713C68.2505 262.713 68.274 262.573 68.274 218.286ZM89.474 262.713H129.518V175.831H89.474V262.713ZM64.3167 108.908C78.3676 50.2159 82.4427 32.4755 82.4309 31.6184C82.4074 30.3739 79.3569 30.139 67.7322 30.4443C45.5076 31.0313 45.802 30.7026 31.81 69.9757C22.376 96.4279 21.1393 100.795 22.3642 103.085C23.1416 104.529 24.5196 106.443 25.4147 107.312C26.6513 108.521 31.5862 108.908 45.6842 108.908H64.3167ZM87.1185 108.908L138.941 107.734L137.763 30.2447H105.963L87.1185 108.908ZM160.141 108.908H210.785L191.941 30.2447H160.141V108.908ZM267.307 70.1636C253.185 30.6556 252.785 30.2447 229.076 30.2447C221.609 30.2447 215.496 30.4443 215.496 30.6791C215.496 30.9257 217.911 41.0932 220.855 53.2802C223.8 65.479 228.04 82.9728 230.277 92.1777L234.341 108.908C281.77 108.803 281.428 109.683 267.307 70.1636Z" fill="white"/>
<path d="M170 188.988C170 157.011 170.823 156.187 203.341 156.01C235.554 155.846 237.012 157.27 237 188.964C237 210.497 235.707 215.042 228.406 219.351C224.209 221.835 222.587 222 202.836 222C182.074 222 181.698 221.953 177.548 218.974C170.917 214.206 170 210.556 170 188.988ZM189.986 200.808L217.026 201.985L215.85 176.084H191.162L189.986 200.808Z" fill="white"/>
</svg>
