<svg width="512" height="512" viewBox="0 0 512 512" fill="none" xmlns="http://www.w3.org/2000/svg">
<path d="M239.3 52.2189C243.456 34.5937 268.544 34.5937 272.7 52.2189L301.11 172.609C305.588 191.592 320.408 206.411 339.39 210.89L459.78 239.3C477.407 243.456 477.407 268.544 459.78 272.7L339.39 301.11C320.408 305.588 305.588 320.408 301.11 339.39L272.7 459.78C268.544 477.407 243.456 477.407 239.3 459.78L210.89 339.39C206.411 320.408 191.592 305.588 172.609 301.11L52.2189 272.7C34.5937 268.544 34.5937 243.456 52.2189 239.3L172.609 210.89C191.592 206.411 206.411 191.592 210.89 172.609L239.3 52.2189Z" fill="#111111"/>
</svg>
