<svg width="250" height="250" viewBox="0 0 250 250" fill="none" xmlns="http://www.w3.org/2000/svg">
<path d="M125.375 132C110.921 132 97.0584 126.258 86.8377 116.037C76.6169 105.817 70.875 91.9543 70.875 77.5C70.875 63.0457 76.6169 49.1834 86.8377 38.9627C97.0584 28.7419 110.921 23 125.375 23C139.829 23 153.692 28.7419 163.912 38.9627C174.133 49.1834 179.875 63.0457 179.875 77.5C179.875 91.9543 174.133 105.817 163.912 116.037C153.692 126.258 139.829 132 125.375 132ZM125.375 111.562C134.409 111.563 143.073 107.974 149.461 101.586C155.849 95.1979 159.438 86.5339 159.438 77.5C159.438 68.4661 155.849 59.8021 149.461 53.4142C143.073 47.0262 134.409 43.4375 125.375 43.4375C116.341 43.4375 107.677 47.0262 101.289 53.4142C94.9012 59.8021 91.3125 68.4661 91.3125 77.5C91.3125 86.5339 94.9012 95.1979 101.289 101.586C107.677 107.974 116.341 111.562 125.375 111.562ZM70.875 145.625H179.875C190.716 145.625 201.112 149.931 208.778 157.597C216.444 165.263 220.75 175.659 220.75 186.5V200.125C220.75 207.352 217.879 214.283 212.769 219.394C207.658 224.504 200.727 227.375 193.5 227.375H57.25C50.0229 227.375 43.0917 224.504 37.9813 219.394C32.871 214.283 30 207.352 30 200.125V186.5C30 175.659 34.3065 165.263 41.972 157.597C49.6376 149.931 60.0343 145.625 70.875 145.625ZM70.875 166.062C65.4546 166.062 60.2563 168.216 56.4235 172.049C52.5907 175.881 50.4375 181.08 50.4375 186.5V200.125C50.4375 201.932 51.1552 203.665 52.4328 204.942C53.7104 206.22 55.4432 206.938 57.25 206.938H193.5C195.307 206.938 197.04 206.22 198.317 204.942C199.595 203.665 200.312 201.932 200.312 200.125V186.5C200.312 181.08 198.159 175.881 194.326 172.049C190.494 168.216 185.295 166.062 179.875 166.062H70.875Z" fill="white"/>
<rect x="47" y="158" width="159" height="59" fill="white"/>
<ellipse cx="125.5" cy="75.5" rx="37.5" ry="43.5" fill="white"/>
</svg>
