<svg width="500" height="500" viewBox="0 0 500 500" fill="none" xmlns="http://www.w3.org/2000/svg">
<path d="M368.893 237.556C367.948 238.511 367.067 239.52 366.122 240.454C354.04 252.526 341.491 262.06 329.122 269.746C346.194 294.908 358.977 320.76 366.122 345.794C376.951 383.601 373.394 415.026 356.386 432.045C345.812 442.609 330.322 447.991 310.341 447.991C259.571 447.991 194.278 414.23 139.984 359.915C54.954 274.885 33.7098 177.614 67.8216 143.481C78.3959 132.906 93.8858 127.555 113.867 127.555C148.562 127.555 190.042 143.321 230.163 170.649C237.871 158.323 247.373 145.784 259.412 133.745C260.378 132.768 261.408 131.866 262.374 130.91C212.613 96.2358 160.092 76.531 113.867 76.531C80.3494 76.531 51.9601 87.2115 31.7563 107.415C-28.9187 168.09 2.78306 294.834 103.919 395.98C168.405 460.498 245.589 499.005 310.341 499.005C343.848 499.005 372.248 488.314 392.441 468.121C423.378 437.184 431.457 388.76 415.161 331.769C406.243 300.46 390.285 268.323 368.893 237.556Z" fill="white"/>
<path d="M156.907 166.126C139.092 166.126 128.061 173.431 121.935 179.546C112.444 189.037 99.3217 211.311 118.082 253.948C128.698 278.07 147.681 304.463 171.537 328.33C210.395 367.208 254.019 391.362 285.36 391.362C303.175 391.362 314.206 384.057 320.321 377.953C329.812 368.45 342.956 346.176 324.196 303.539C320.777 295.8 316.425 287.816 311.403 279.737C273.31 298.656 241.215 300.376 239.272 300.482C228.571 300.928 218.124 296.84 210.564 289.292C203.016 281.743 198.939 271.286 199.406 260.616C199.491 258.652 201.179 226.61 220.056 188.57C197.124 174.354 174.977 166.126 156.907 166.126Z" fill="white"/>
<path d="M499.511 81.8395C498.417 77.529 495.201 74.0573 490.911 72.7409L442.371 57.5058L427.136 8.93392C425.799 4.6872 422.327 1.43846 418.016 0.366164C413.685 -0.695516 409.098 0.589117 405.935 3.73169L361.673 48.0037C358.679 51.0083 357.352 55.3081 358.18 59.4805L363.648 87.2222C337.807 99.7288 305.171 124.041 277.45 151.751C228.029 201.183 224.993 259.225 224.886 261.677C224.738 265.245 226.086 268.706 228.613 271.232C231.15 273.738 234.601 275.108 238.179 274.959C240.631 274.853 298.673 271.816 348.105 222.395C375.793 194.664 400.117 162.007 412.613 136.197L440.375 141.654C444.558 142.483 448.837 141.166 451.842 138.162L496.114 93.8895C499.267 90.7576 500.573 86.1923 499.511 81.8395Z" fill="white"/>
</svg>
