<?xml version="1.0" encoding="UTF-8"?>
<svg version="1.1" xmlns="http://www.w3.org/2000/svg" width="180" height="180">
<path d="M0 0 C59.4 0 118.8 0 180 0 C180 59.4 180 118.8 180 180 C120.6 180 61.2 180 0 180 C0 120.6 0 61.2 0 0 Z " fill="#10161F" transform="translate(0,0)"/>
<path d="M0 0 C0.88636139 0.41319489 1.77272278 0.82638977 2.6859436 1.25210571 C5.51440186 2.57182064 8.33932049 3.8989145 11.1640625 5.2265625 C13.98234876 6.54555518 16.8013462 7.86301114 19.62075806 9.17959595 C21.37236239 9.99815517 23.1231984 10.8183612 24.87313843 11.64047241 C29.47808386 13.79891984 34.10168523 15.87821996 38.7890625 17.8515625 C37.14295883 22.52613314 34.69375656 26.53374431 32.1015625 30.7265625 C31.62460938 31.50322266 31.14765625 32.27988281 30.65625 33.08007812 C26.02048423 40.5763355 21.1866512 47.94049299 16.34790039 55.30664062 C12.47357771 61.21995075 8.69792169 67.17772796 5.0390625 73.2265625 C1.33125693 79.33670558 -2.39365617 85.43401132 -6.2109375 91.4765625 C-6.89687988 92.589104 -6.89687988 92.589104 -7.59667969 93.72412109 C-8.72093838 95.48725897 -9.95696783 97.17819081 -11.2109375 98.8515625 C-12.2009375 98.8515625 -13.1909375 98.8515625 -14.2109375 98.8515625 C-15.82983398 96.8581543 -15.82983398 96.8581543 -17.58203125 94.05078125 C-18.23268555 93.02033691 -18.88333984 91.98989258 -19.55371094 90.92822266 C-20.59060059 89.25058838 -20.59060059 89.25058838 -21.6484375 87.5390625 C-22.37041437 86.38787827 -23.0934045 85.23732893 -23.81738281 84.08740234 C-25.27495856 81.76890358 -26.72674822 79.44694963 -28.17333984 77.12158203 C-30.43579656 73.49069954 -32.72148249 69.87513211 -35.01245117 66.26220703 C-36.46004178 63.9779759 -37.90268886 61.69069887 -39.34375 59.40234375 C-41.82674893 55.45970955 -44.31590301 51.5210008 -46.80664062 47.58325195 C-48.79139805 44.44357103 -50.77200978 41.30128269 -52.75292969 38.15917969 C-54.22641741 35.82706215 -55.70659626 33.49928873 -57.1875 31.171875 C-58.11213139 29.71103384 -59.03661742 28.25010066 -59.9609375 26.7890625 C-60.39164551 26.11593018 -60.82235352 25.44279785 -61.26611328 24.74926758 C-64.2109375 20.07839836 -64.2109375 20.07839836 -64.2109375 17.8515625 C-63.15817627 17.36800293 -62.10541504 16.88444336 -61.02075195 16.38623047 C-57.05276135 14.56359499 -53.08484244 12.74080347 -49.11694336 10.91796875 C-47.41123324 10.13439863 -45.7055046 9.35086884 -43.99975586 8.56738281 C-42.34272593 7.80626833 -40.68581387 7.04489717 -39.02902222 6.28326416 C-37.39613414 5.533596 -35.7624485 4.78566254 -34.12796021 4.03948975 C-30.4895165 2.37578527 -26.86549116 0.69573999 -23.27880859 -1.07714844 C-22.13621582 -1.6343457 -20.99362305 -2.19154297 -19.81640625 -2.765625 C-18.8421167 -3.25401855 -17.86782715 -3.74241211 -16.86401367 -4.24560547 C-10.86348932 -6.28756176 -5.39105999 -2.54631653 0 0 Z " fill="#2A6189" transform="translate(103.2109375,45.1484375)"/>
<path d="M0 0 C1.33309959 0.61979233 1.33309959 0.61979233 2.69313049 1.25210571 C5.52828232 2.57185958 8.35981032 3.89919927 11.19140625 5.2265625 C13.09287596 6.11245797 14.9945664 6.99787983 16.89648438 7.8828125 C31.7141344 14.78860952 31.7141344 14.78860952 37.75390625 17.8515625 C35.58488735 20.24189195 33.60237435 21.57804136 30.66894531 22.90454102 C29.85089417 23.27825333 29.03284302 23.65196564 28.19000244 24.03700256 C26.8681192 24.62776833 26.8681192 24.62776833 25.51953125 25.23046875 C24.60814392 25.64320541 23.69675659 26.05594208 22.75775146 26.48118591 C20.82923967 27.35263968 18.89920385 28.22072748 16.96777344 29.08569336 C14.02525984 30.40449208 11.08853043 31.73554352 8.15234375 33.06835938 C6.27507293 33.91480219 4.39747892 34.76052868 2.51953125 35.60546875 C1.64637268 36.00133682 0.77321411 36.3972049 -0.12640381 36.80506897 C-2.48593666 37.85766458 -4.8584264 38.86475689 -7.24609375 39.8515625 C-9.00759766 40.58826172 -9.00759766 40.58826172 -10.8046875 41.33984375 C-15.71851808 42.07050414 -18.71730517 40.44771497 -23.07421875 38.28515625 C-24.31869781 37.69940575 -24.31869781 37.69940575 -25.58831787 37.1018219 C-28.23432163 35.85091174 -30.86494294 34.57087428 -33.49609375 33.2890625 C-35.24904861 32.45308024 -37.00294796 31.61907544 -38.7578125 30.78710938 C-42.10836186 29.19591863 -45.45374184 27.59465275 -48.79492188 25.98388672 C-53.90883694 23.52414727 -59.06160634 21.15914738 -64.24609375 18.8515625 C-60.66338406 15.81968135 -56.59696203 14.08321055 -52.33203125 12.234375 C-51.56235016 11.89534149 -50.79266907 11.55630798 -49.99966431 11.20700073 C-47.54225242 10.12530204 -45.08191146 9.05048785 -42.62109375 7.9765625 C-39.39830324 6.56575189 -36.17733776 5.15084466 -32.95703125 3.734375 C-32.18542664 3.39722473 -31.41382202 3.06007446 -30.61883545 2.71270752 C-25.70703361 0.55128089 -20.93956105 -1.77378917 -16.27587891 -4.43798828 C-10.80656764 -6.35231301 -4.88325214 -2.29797725 0 0 Z " fill="#44ACF3" transform="translate(103.24609375,45.1484375)"/>
<path d="M0 0 C0.495 0.99 0.495 0.99 1 2 C-0.04125977 4.08105469 -0.04125977 4.08105469 -1.69140625 6.671875 C-2.29944092 7.63520752 -2.90747559 8.59854004 -3.53393555 9.59106445 C-4.20336182 10.63351318 -4.87278809 11.67596191 -5.5625 12.75 C-6.58500854 14.36297974 -6.58500854 14.36297974 -7.62817383 16.00854492 C-9.04900377 18.24751299 -10.47240503 20.48450898 -11.90136719 22.71826172 C-13.83844179 25.74736326 -15.76845652 28.78079782 -17.6953125 31.81640625 C-20.00903455 35.45958812 -22.32696442 39.10003388 -24.6484375 42.73828125 C-27.88600997 47.81534102 -31.10125354 52.90626322 -34.3125 58 C-35.74965834 60.27597595 -37.18750857 62.55151173 -38.62597656 64.82666016 C-39.54258039 66.27648376 -40.45859541 67.72667979 -41.37402344 69.17724609 C-42.64147726 71.18304501 -43.91367726 73.18574166 -45.1875 75.1875 C-45.56237549 75.78240234 -45.93725098 76.37730469 -46.32348633 76.99023438 C-47.18869228 78.34443417 -48.09023214 79.67532613 -49 81 C-49.33 81 -49.66 81 -50 81 C-50 61.86 -50 42.72 -50 23 C-32.875 15.4375 -32.875 15.4375 -27.56591797 13.09936523 C-18.24350691 8.97735193 -9.06428442 4.66497927 0 0 Z " fill="#3686BE" transform="translate(141,63)"/>
</svg>
